<?xml version="1.0" encoding="utf-8"?>
<!-- Generator: Adobe Illustrator 26.0.1, SVG Export Plug-In . SVG Version: 6.00 Build 0)  -->
<svg version="1.1" id="Layer_1" xmlns="http://www.w3.org/2000/svg" xmlns:xlink="http://www.w3.org/1999/xlink" x="0px" y="0px"
	 viewBox="0 0 30.2 30.2" style="enable-background:new 0 0 30.2 30.2;" xml:space="preserve">
<path d="M26.1,29.6L0.6,4.1c-0.8-0.8-0.8-2,0-2.8l0.7-0.7c0.8-0.8,2-0.8,2.8,0l25.5,25.5c0.8,0.8,0.8,2,0,2.8l-0.7,0.7
	C28.1,30.4,26.8,30.4,26.1,29.6z"/>
<path d="M29.6,4.1L4.1,29.6c-0.8,0.8-2,0.8-2.8,0l-0.7-0.7c-0.8-0.8-0.8-2,0-2.8L26.1,0.6c0.8-0.8,2-0.8,2.8,0l0.7,0.7
	C30.4,2.1,30.4,3.4,29.6,4.1z"/>
</svg>
