<?xml version="1.0" encoding="utf-8"?>
<!-- Generator: Adobe Illustrator 26.0.1, SVG Export Plug-In . SVG Version: 6.00 Build 0)  -->
<svg version="1.1" id="Layer_1" xmlns="http://www.w3.org/2000/svg" xmlns:xlink="http://www.w3.org/1999/xlink" x="0px" y="0px"
	 viewBox="0 0 55 20" style="enable-background:new 0 0 55 20;" xml:space="preserve">
<path d="M38,5H2C0.9,5,0,4.1,0,3l0-1c0-1.1,0.9-2,2-2l36,0c1.1,0,2,0.9,2,2v1C40,4.1,39.1,5,38,5z"/>
<path d="M53,20H17c-1.1,0-2-0.9-2-2v-1c0-1.1,0.9-2,2-2h36c1.1,0,2,0.9,2,2v1C55,19.1,54.1,20,53,20z"/>
</svg>
