<?xml version="1.0" encoding="utf-8"?>
<!-- Generator: Adobe Illustrator 26.0.1, SVG Export Plug-In . SVG Version: 6.00 Build 0)  -->
<svg version="1.1" id="Layer_1" xmlns="http://www.w3.org/2000/svg" xmlns:xlink="http://www.w3.org/1999/xlink" x="0px" y="0px"
	 viewBox="0 0 200 200" style="enable-background:new 0 0 200 200;" xml:space="preserve">
<style type="text/css">
	.st0{fill-rule:evenodd;clip-rule:evenodd;}
</style>
<desc>Created with Sketch.</desc>
<g>
	<g>
		<path class="st0" d="M137.5,120.8l-5.3-5.3L150.1,97c0.3-0.3,0.3-0.9,0-1.2l-49.4-51.2c-0.3-0.3-0.9-0.3-1.2,0L50,95.7
			c-0.3,0.3-0.3,0.9,0,1.2l49.4,51.2c0.3,0.3,0.9,0.3,1.2,0l19.3-20l5.2,5.2l-22.7,23.2c-1.4,1.4-3.6,1.4-5,0L41.4,99.3
			c-1.4-1.4-1.4-3.7,0-5.1l56.1-57.4c1.4-1.4,3.6-1.4,5,0l56.1,57.4c1.4,1.4,1.4,3.7,0,5.1L137.5,120.8z"/>
		<path class="st0" d="M121.2,110.8c0.1,0.1,0.2,0.2,0.3,0.3l14.1,14.1c1.5,1.5,1.5,4,0,5.5c-1.5,1.5-4,1.5-5.5,0L116,116.7
			c-0.1-0.1-0.2-0.3-0.4-0.4c-3.9,2.7-8.7,4.4-13.9,4.4c-13.4,0-24.2-10.9-24.2-24.2s10.9-24.2,24.2-24.2S126,83,126,96.4
			C126,101.8,124.2,106.8,121.2,110.8z M101.7,113.5c9.5,0,17.1-7.7,17.1-17.1s-7.7-17.1-17.1-17.1s-17.1,7.7-17.1,17.1
			S92.3,113.5,101.7,113.5z"/>
	</g>
</g>
</svg>
