<svg xmlns="http://www.w3.org/2000/svg" xmlns:xlink="http://www.w3.org/1999/xlink" viewBox="0 0 200 200" version="1.1" x="0px" y="0px"><title>UX Process</title><desc>Created with Sketch.</desc><g stroke="none" stroke-width="1" fill="none" fill-rule="evenodd"><g fill="#000000"><path d="M115.060756,89 L103.251062,89 L65.0620174,49.9327823 C64.7373858,49.6006857 64.211054,49.6006857 63.8864224,49.9327823 L15.6870295,99.2405408 C15.3623979,99.5726374 15.3623979,100.111072 15.6870295,100.443169 L63.8864224,149.750928 C64.211054,150.083024 64.7373858,150.083024 65.0620174,149.750928 L102.941881,111 L115.246692,111 L107.17698,119.255278 L136.48427,149.236501 C136.806207,149.565841 137.328169,149.565841 137.650106,149.236501 L185.449367,100.338075 C185.771304,100.008736 185.771304,99.4747704 185.449367,99.1454307 L137.650106,50.2470048 C137.328169,49.9176651 136.806207,49.9176651 136.48427,50.2470048 L106.83157,80.5815807 L115.060756,89 Z M100.721778,125.85892 L67.2191119,160.131995 C65.8398724,161.54295 63.6036834,161.54295 62.2244439,160.131995 L6.0344296,102.649867 C4.65519013,101.238911 4.65519013,98.9513001 6.0344296,97.5403444 L62.2244439,40.0582167 C63.6036834,38.6472611 65.8398724,38.6472611 67.2191119,40.0582167 L100.721778,74.3312909 L134.224444,40.0582167 C135.603683,38.6472611 137.839872,38.6472611 139.219112,40.0582167 L195.409126,97.5403444 C196.788366,98.9513001 196.788366,101.238911 195.409126,102.649867 L139.219112,160.131995 C137.839872,161.54295 135.603683,161.54295 134.224444,160.131995 L100.721778,125.85892 Z"></path><rect x="65" y="96" width="79" height="8" rx="4"></rect><path d="M150.758647,99.8033009 C150.811895,100.891518 150.422973,101.997337 149.591883,102.828427 L138.985281,113.435029 C137.423184,114.997126 134.890524,114.997126 133.328427,113.435029 C131.76633,111.872932 131.76633,109.340272 133.328427,107.778175 L141.303301,99.8033009 L133.328427,91.8284271 C131.76633,90.26633 131.76633,87.73367 133.328427,86.1715729 C134.890524,84.6094757 137.423184,84.6094757 138.985281,86.1715729 L149.591883,96.7781746 C150.422973,97.6092649 150.811895,98.7150838 150.758647,99.8033009 Z"></path></g></g></svg>